<svg width="1460" height="833" viewBox="0 0 1460 833" fill="none" xmlns="http://www.w3.org/2000/svg">
<g filter="url(#filter0_b_1_43)">
<path d="M0 93.2736C0 50.6651 0 29.3608 12.579 15.6063C13.5426 14.5527 14.5527 13.5426 15.6063 12.579C29.3608 0 50.6651 0 93.2736 0H110.36C123.311 0 129.786 0 135.39 1.58452C145.853 4.543 154.761 11.444 160.241 20.836C163.175 25.8662 164.793 32.1363 168.029 44.6765C172.653 62.591 174.964 71.5482 179.156 78.7343C186.984 92.1514 199.709 102.01 214.657 106.236C222.662 108.5 231.913 108.5 250.415 108.5H1364C1409.25 108.5 1431.88 108.5 1445.94 122.559C1460 136.618 1460 159.245 1460 204.5V622C1460 667.255 1460 689.882 1445.94 703.941C1431.88 718 1409.25 718 1364 718H752.774C735.573 718 726.972 718 719.933 722.138C712.894 726.277 708.711 733.792 700.346 748.823L670.654 802.177C662.289 817.208 658.106 824.723 651.067 828.862C644.028 833 635.427 833 618.226 833H600.456C579.036 833 568.325 833 560.368 827.104C552.411 821.209 549.293 810.962 543.056 790.47L533.944 760.53C527.707 740.038 524.589 729.791 516.632 723.896C508.675 718 497.964 718 476.544 718H205.271C181.911 718 170.231 718 161.963 724.721C153.695 731.441 151.309 742.875 146.536 765.742L141.619 789.304C137.671 808.223 135.697 817.682 129.598 823.939C127.981 825.598 126.178 827.064 124.223 828.308C116.852 833 107.189 833 87.8629 833C50.4651 833 31.7662 833 18.8649 823.146C15.474 820.557 12.4435 817.526 9.8536 814.135C0 801.234 0 782.535 0 745.137V93.2736Z" fill="#171B22" fill-opacity="0.4"/>
<path d="M1 93.2736C1 71.9428 1.0019 56.0395 2.56439 43.7458C4.12364 31.4776 7.22273 22.9449 13.3169 16.2812C14.2604 15.2495 15.2495 14.2604 16.2812 13.3169C22.9449 7.22273 31.4776 4.12364 43.7458 2.56439C56.0395 1.0019 71.9428 1 93.2736 1H110.36C123.374 1 129.68 1.00921 135.118 2.54679C145.332 5.43483 154.028 12.1716 159.377 21.3399C162.224 26.2211 163.809 32.3253 167.061 44.9263L167.116 45.1382C171.687 62.8523 174.03 71.9322 178.293 79.2382C186.25 92.8789 199.188 102.902 214.385 107.199C222.524 109.5 231.901 109.5 250.196 109.5H250.415H1364C1386.66 109.5 1403.55 109.502 1416.54 111.248C1429.5 112.991 1438.42 116.453 1445.23 123.266C1452.05 130.079 1455.51 139.004 1457.25 151.964C1459 164.953 1459 181.844 1459 204.5V622C1459 644.656 1459 661.547 1457.25 674.536C1455.51 687.496 1452.05 696.421 1445.23 703.234C1438.42 710.047 1429.5 713.509 1416.54 715.252C1403.55 716.998 1386.66 717 1364 717H752.774H752.718C744.165 717 737.673 717 732.443 717.522C727.18 718.048 723.114 719.108 719.426 721.276C715.738 723.444 712.835 726.481 709.816 730.825C706.816 735.141 703.659 740.813 699.5 748.287L699.473 748.336L669.78 801.691C665.588 809.224 662.478 814.809 659.542 819.034C656.619 823.24 653.912 826.029 650.56 828C647.209 829.97 643.455 830.979 638.358 831.488C633.239 831.999 626.846 832 618.226 832H600.456C589.723 832 581.758 831.998 575.479 831.27C569.226 830.544 564.75 829.106 560.964 826.301C557.177 823.495 554.499 819.632 551.984 813.861C549.459 808.067 547.138 800.447 544.013 790.179L534.901 760.239L534.882 760.178C531.78 749.984 529.427 742.253 526.85 736.339C524.257 730.39 521.398 726.182 517.227 723.092C513.057 720.002 508.199 718.492 501.752 717.744C495.345 717 487.265 717 476.612 717H476.544H205.271H205.201C193.58 717 184.77 717 177.836 717.847C170.861 718.7 165.667 720.421 161.332 723.945C156.997 727.468 154.251 732.201 151.992 738.855C149.746 745.469 147.946 754.094 145.572 765.468L145.557 765.538L140.64 789.1C138.662 798.579 137.192 805.615 135.462 811.067C133.738 816.5 131.781 820.267 128.882 823.241C127.319 824.845 125.575 826.262 123.686 827.465C120.182 829.695 116.095 830.841 110.425 831.419C104.734 831.999 97.5465 832 87.8629 832C69.1408 832 55.1827 831.999 44.2894 830.775C33.4161 829.553 25.7198 827.124 19.4719 822.352C16.1516 819.816 13.1843 816.848 10.6483 813.528C5.87637 807.28 3.44717 799.584 2.22545 788.711C1.00148 777.817 1 763.859 1 745.137V93.2736Z" stroke="url(#paint0_linear_1_43)" stroke-opacity="0.3" stroke-width="2"/>
</g>
<defs>
<filter id="filter0_b_1_43" x="-270" y="-270" width="2000" height="1373" filterUnits="userSpaceOnUse" color-interpolation-filters="sRGB">
<feFlood flood-opacity="0" result="BackgroundImageFix"/>
<feGaussianBlur in="BackgroundImageFix" stdDeviation="135"/>
<feComposite in2="SourceAlpha" operator="in" result="effect1_backgroundBlur_1_43"/>
<feBlend mode="normal" in="SourceGraphic" in2="effect1_backgroundBlur_1_43" result="shape"/>
</filter>
<linearGradient id="paint0_linear_1_43" x1="155" y1="50.5" x2="292" y2="912.5" gradientUnits="userSpaceOnUse">
<stop stop-color="white"/>
<stop offset="1" stop-color="white" stop-opacity="0"/>
</linearGradient>
</defs>
</svg>
