<svg width="346" height="402" viewBox="0 0 346 402" fill="none" xmlns="http://www.w3.org/2000/svg">
<g filter="url(#filter0_b_1_201)">
<path d="M0 44.9759C0 24.0476 0 13.5835 6.36605 6.97282C6.56447 6.76677 6.76677 6.56447 6.97282 6.36605C13.5835 0 24.0476 0 44.9759 0H53.2031C59.7112 0 62.9652 0 65.7693 0.842694C70.4925 2.26216 74.5211 5.38368 77.075 9.60289C78.5912 12.1077 79.4037 15.2587 81.0288 21.5606C83.3503 30.5633 84.5111 35.0646 86.6771 38.6429C90.3255 44.6704 96.0807 49.1297 102.828 51.1575C106.834 52.3613 111.483 52.3613 120.78 52.3613H300.478C321.937 52.3613 332.667 52.3613 339.333 59.0279C346 65.6945 346 76.4242 346 97.8836V334.696C346 340.567 346 343.502 345.271 346.313C344.542 349.123 343.116 351.689 340.262 356.82L322.465 388.824C319.293 394.528 317.707 397.379 315.231 399.211C314.428 399.805 313.564 400.313 312.654 400.726C309.85 402 306.587 402 300.061 402C291.569 402 287.324 402 283.992 400.047C282.919 399.418 281.934 398.651 281.061 397.767C278.348 395.018 277.303 390.902 275.214 382.672L268.687 356.954C266.071 346.649 264.763 341.496 260.91 338.499C257.057 335.502 251.741 335.502 241.11 335.502H89.3963C77.9628 335.502 72.246 335.502 68.2765 338.84C64.307 342.178 63.3267 347.811 61.3663 359.075L57.0793 383.706C56.0065 389.871 55.4701 392.953 53.997 395.311C52.4104 397.851 50.0625 399.826 47.288 400.953C44.7122 402 41.5838 402 35.327 402C23.6075 402 17.7477 402 13.1983 399.894C8.30345 397.627 4.37255 393.697 2.10633 388.802C0 384.252 0 378.393 0 366.673V44.9759Z" fill="#171B22" fill-opacity="0.4"/>
<path d="M0.47419 44.9759C0.47419 34.4987 0.47515 26.6874 1.26591 20.667C2.05496 14.6597 3.62304 10.5049 6.70761 7.30174C6.9019 7.09998 7.09998 6.9019 7.30174 6.70761C10.5049 3.62304 14.6597 2.05496 20.667 1.26591C26.6874 0.47515 34.4987 0.47419 44.9759 0.47419H53.2031C59.7428 0.47419 62.9118 0.479088 65.6328 1.29682C70.2436 2.68249 74.1763 5.72969 76.6694 9.84844C78.1406 12.2791 78.9367 15.3464 80.5696 21.679L80.5971 21.7854C82.8926 30.6873 84.0693 35.2504 86.2714 38.8885C89.9807 45.0164 95.8317 49.55 102.692 51.6116C106.764 52.8356 111.477 52.8356 120.67 52.8355H120.78H300.478C311.221 52.8355 319.231 52.8365 325.39 53.6646C331.535 54.4909 335.768 56.1327 338.998 59.3632C342.229 62.5937 343.87 66.826 344.697 72.9716C345.525 79.1308 345.526 87.1405 345.526 97.8836V334.696C345.526 340.59 345.522 343.455 344.812 346.194C344.102 348.932 342.713 351.438 339.848 356.589L322.05 388.594C318.857 394.336 317.323 397.074 314.949 398.83C314.172 399.404 313.338 399.895 312.458 400.295C309.77 401.516 306.632 401.526 300.061 401.526C295.806 401.526 292.648 401.525 290.137 401.284C287.634 401.043 285.816 400.566 284.232 399.638C283.195 399.03 282.242 398.289 281.398 397.434C280.108 396.127 279.199 394.481 278.35 392.115C277.498 389.74 276.72 386.679 275.674 382.555L269.146 356.837L269.138 356.806C267.837 351.68 266.851 347.793 265.705 344.816C264.552 341.82 263.221 339.696 261.201 338.125C259.182 336.554 256.795 335.786 253.608 335.406C250.441 335.028 246.431 335.028 241.143 335.028H241.11H89.3963H89.3618C83.6742 335.028 79.3626 335.028 75.9788 335.449C72.5751 335.872 70.0526 336.727 67.9713 338.477C65.89 340.228 64.6152 342.566 63.6144 345.847C62.6196 349.108 61.8803 353.356 60.9051 358.959L60.8991 358.993L56.6122 383.625C55.5319 389.832 55.0067 392.8 53.5949 395.06C52.0611 397.515 49.7915 399.424 47.1095 400.514C44.6407 401.517 41.6273 401.526 35.327 401.526C29.46 401.526 25.0861 401.526 21.6094 401.264C18.1377 401.003 15.5991 400.483 13.3975 399.463C8.60465 397.244 4.75564 393.395 2.53664 388.603C1.51731 386.401 0.997416 383.862 0.736144 380.391C0.474502 376.914 0.47419 372.54 0.47419 366.673V44.9759Z" stroke="url(#paint0_linear_1_201)" stroke-opacity="0.3" stroke-width="0.948379"/>
</g>
<defs>
<filter id="filter0_b_1_201" x="-128.031" y="-128.031" width="602.062" height="658.062" filterUnits="userSpaceOnUse" color-interpolation-filters="sRGB">
<feFlood flood-opacity="0" result="BackgroundImageFix"/>
<feGaussianBlur in="BackgroundImageFix" stdDeviation="64.0156"/>
<feComposite in2="SourceAlpha" operator="in" result="effect1_backgroundBlur_1_201"/>
<feBlend mode="normal" in="SourceGraphic" in2="effect1_backgroundBlur_1_201" result="shape"/>
</filter>
<linearGradient id="paint0_linear_1_201" x1="74.7457" y1="24.3709" x2="140.908" y2="440.351" gradientUnits="userSpaceOnUse">
<stop stop-color="white"/>
<stop offset="1" stop-color="white" stop-opacity="0"/>
</linearGradient>
</defs>
</svg>
